{
  "accessors": [
    {
      "bufferView": 2,
      "componentType": 5126,
      "count": 2208,
      "max": [
        12.536370277404785,
        12.536370277404785,
        12.536370277404785
      ],
      "min": [
        -68.4015884399414,
        -12.536370277404785,
        -12.536370277404785
      ],
      "type": "VEC3"
    },
    {
      "bufferView": 2,
      "byteOffset": 26496,
      "componentType": 5126,
      "count": 2208,
      "max": [
        0.9831055998802185,
        0.9912986159324646,
        0.9831055998802185
      ],
      "min": [
        -0.9831055998802185,
        -0.9912986159324646,
        -0.9831055998802185
      ],
      "type": "VEC3"
    },
    {
      "bufferView": 1,
      "componentType": 5126,
      "count": 2208,
      "max": [
        0.9892011880874634,
        0.9919008612632751
      ],
      "min": [
        0.01079883985221386,
        0.008099198341369629
      ],
      "type": "VEC2"
    },
    {
      "bufferView": 0,
      "componentType": 5125,
      "count": 3168,
      "type": "SCALAR"
    },
    {
      "bufferView": 2,
      "byteOffset": 52992,
      "componentType": 5126,
      "count": 65533,
      "max": [
        83.35591125488281,
        97.67350006103516,
        228.10382080078125
      ],
      "min": [
        -83.35591125488281,
        -124.39695739746094,
        -156.06668090820313
      ],
      "type": "VEC3"
    },
    {
      "bufferView": 2,
      "byteOffset": 839388,
      "componentType": 5126,
      "count": 65533,
      "max": [
        0.9999597668647766,
        0.999872624874115,
        1.0
      ],
      "min": [
        -0.9999833106994629,
        -1.0,
        -1.0
      ],
      "type": "VEC3"
    },
    {
      "bufferView": 1,
      "byteOffset": 17664,
      "componentType": 5126,
      "count": 65533,
      "max": [
        0.9958035945892334,
        0.9957550168037415
      ],
      "min": [
        0.004196407273411751,
        0.00424504280090332
      ],
      "type": "VEC2"
    },
    {
      "bufferView": 0,
      "byteOffset": 12672,
      "componentType": 5125,
      "count": 99633,
      "type": "SCALAR"
    },
    {
      "bufferView": 2,
      "byteOffset": 1625784,
      "componentType": 5126,
      "count": 8325,
      "max": [
        55.652862548828125,
        85.15543365478516,
        102.2668685913086
      ],
      "min": [
        -61.13044738769531,
        -124.39695739746094,
        -149.87844848632813
      ],
      "type": "VEC3"
    },
    {
      "bufferView": 2,
      "byteOffset": 1725684,
      "componentType": 5126,
      "count": 8325,
      "max": [
        0.9999866485595703,
        0.9995105862617493,
        0.99989914894104
      ],
      "min": [
        -0.9999866485595703,
        -1.0,
        -0.9997007846832275
      ],
      "type": "VEC3"
    },
    {
      "bufferView": 1,
      "byteOffset": 541928,
      "componentType": 5126,
      "count": 8325,
      "max": [
        0.95564204454422,
        0.9957550168037415
      ],
      "min": [
        0.004196407273411751,
        0.029073238372802734
      ],
      "type": "VEC2"
    },
    {
      "bufferView": 0,
      "byteOffset": 411204,
      "componentType": 5125,
      "count": 12495,
      "type": "SCALAR"
    }
  ],
  "asset": {
    "extras": {
      "author": "_alex_buzin (https://sketchfab.com/_alex_buzin)",
      "license": "CC-BY-4.0 (http://creativecommons.org/licenses/by/4.0/)",
      "source": "https://sketchfab.com/3d-models/money-pig-ac2136e155d9410b93920a9624b7d147",
      "title": "Money pig"
    },
    "generator": "Sketchfab-12.68.0",
    "version": "2.0"
  },
  "bufferViews": [
    {
      "buffer": 0,
      "byteLength": 461184,
      "name": "floatBufferViews",
      "target": 34963
    },
    {
      "buffer": 0,
      "byteLength": 608528,
      "byteOffset": 461184,
      "byteStride": 8,
      "name": "floatBufferViews",
      "target": 34962
    },
    {
      "buffer": 0,
      "byteLength": 1825584,
      "byteOffset": 1069712,
      "byteStride": 12,
      "name": "floatBufferViews",
      "target": 34962
    }
  ],
  "buffers": [
    {
      "byteLength": 2895296,
      "uri": "scene.bin"
    }
  ],
  "extensionsRequired": [
    "KHR_materials_pbrSpecularGlossiness"
  ],
  "extensionsUsed": [
    "KHR_materials_pbrSpecularGlossiness"
  ],
  "images": [
    {
      "uri": "textures/Mat.1_diffuse.png"
    },
    {
      "uri": "textures/material_diffuse.png"
    }
  ],
  "materials": [
    {
      "extensions": {
        "KHR_materials_pbrSpecularGlossiness": {
          "diffuseFactor": [
            1.0,
            1.0,
            1.0,
            1.0
          ],
          "diffuseTexture": {
            "index": 0
          },
          "glossinessFactor": 0.0,
          "specularFactor": [
            0.0,
            0.0,
            0.0
          ]
        }
      },
      "name": "Mat.1"
    },
    {
      "doubleSided": true,
      "extensions": {
        "KHR_materials_pbrSpecularGlossiness": {
          "diffuseFactor": [
            1.0,
            1.0,
            1.0,
            1.0
          ],
          "diffuseTexture": {
            "index": 1
          },
          "glossinessFactor": 0.04756828460010884,
          "specularFactor": [
            0.0,
            0.0,
            0.0
          ]
        }
      },
      "name": "material"
    }
  ],
  "meshes": [
    {
      "name": "Sphere_Mat.1_0",
      "primitives": [
        {
          "attributes": {
            "NORMAL": 1,
            "POSITION": 0,
            "TEXCOORD_0": 2
          },
          "indices": 3,
          "material": 0,
          "mode": 4
        }
      ]
    },
    {
      "name": "Pig2_Mat_0",
      "primitives": [
        {
          "attributes": {
            "NORMAL": 5,
            "POSITION": 4,
            "TEXCOORD_0": 6
          },
          "indices": 7,
          "material": 1,
          "mode": 4
        }
      ]
    },
    {
      "name": "Pig2_Mat_0",
      "primitives": [
        {
          "attributes": {
            "NORMAL": 9,
            "POSITION": 8,
            "TEXCOORD_0": 10
          },
          "indices": 11,
          "material": 1,
          "mode": 4
        }
      ]
    }
  ],
  "nodes": [
    {
      "children": [
        1
      ],
      "matrix": [
        0.010126156732439995,
        0.0,
        0.0,
        0.0,
        0.0,
        3.876868643568832e-18,
        -0.010126156732439995,
        0.0,
        0.0,
        0.010126156732439995,
        3.876868643568832e-18,
        0.0,
        0.0,
        4.733165431326071e-30,
        -2.1316282072803006e-14,
        1.0
      ],
      "name": "Sketchfab_model"
    },
    {
      "children": [
        2
      ],
      "matrix": [
        1.0,
        0.0,
        0.0,
        0.0,
        0.0,
        0.0,
        1.0,
        0.0,
        0.0,
        -1.0,
        0.0,
        0.0,
        0.0,
        0.0,
        0.0,
        1.0
      ],
      "name": "money_pig_test2.c4d.fbx"
    },
    {
      "children": [
        3,
        5
      ],
      "name": "RootNode"
    },
    {
      "children": [
        4
      ],
      "matrix": [
        1.0,
        0.0,
        0.0,
        0.0,
        0.0,
        1.0,
        0.0,
        0.0,
        0.0,
        0.0,
        1.0,
        0.0,
        28.073684692382813,
        164.28158569335938,
        168.5937042236328,
        1.0
      ],
      "name": "Sphere"
    },
    {
      "mesh": 0,
      "name": "Sphere_Mat.1_0"
    },
    {
      "children": [
        6,
        7
      ],
      "matrix": [
        1.0,
        0.0,
        0.0,
        0.0,
        0.0,
        1.0,
        0.0,
        0.0,
        0.0,
        0.0,
        1.0,
        0.0,
        0.0,
        130.52679443359375,
        0.0,
        1.0
      ],
      "name": "Pig2"
    },
    {
      "mesh": 1,
      "name": "Pig2_Mat_0"
    },
    {
      "mesh": 2,
      "name": "Pig2_Mat_0"
    }
  ],
  "samplers": [
    {
      "magFilter": 9729,
      "minFilter": 9987,
      "wrapS": 10497,
      "wrapT": 10497
    }
  ],
  "scene": 0,
  "scenes": [
    {
      "name": "Sketchfab_Scene",
      "nodes": [
        0
      ]
    }
  ],
  "textures": [
    {
      "sampler": 0,
      "source": 0
    },
    {
      "sampler": 0,
      "source": 1
    }
  ]
}
